<?xml version="1.0" encoding="UTF-8" standalone="no"?>
<!-- Generator: Adobe Illustrator 21.1.0, SVG Export Plug-In . SVG Version: 6.00 Build 0)  -->

<svg
   xmlns:dc="http://purl.org/dc/elements/1.1/"
   xmlns:cc="http://creativecommons.org/ns#"
   xmlns:rdf="http://www.w3.org/1999/02/22-rdf-syntax-ns#"
   xmlns:svg="http://www.w3.org/2000/svg"
   xmlns="http://www.w3.org/2000/svg"
   xmlns:sodipodi="http://sodipodi.sourceforge.net/DTD/sodipodi-0.dtd"
   xmlns:inkscape="http://www.inkscape.org/namespaces/inkscape"
   version="1.1"
   id="_x30_"
   x="0px"
   y="0px"
   viewBox="0 0 53 53"
   xml:space="preserve"
   sodipodi:docname="logo.svg"
   inkscape:version="0.92.2 5c3e80d, 2017-08-06"
   width="53"
   height="53"
   inkscape:export-filename="/home/vp/rustfest.eu/2017_Zürich/logo/final.svg.png"
   inkscape:export-xdpi="341.32999"
   inkscape:export-ydpi="341.32999"><metadata
     id="metadata203"><rdf:RDF><cc:Work
         rdf:about=""><dc:format>image/svg+xml</dc:format><dc:type
           rdf:resource="http://purl.org/dc/dcmitype/StillImage" /><dc:title></dc:title></cc:Work></rdf:RDF></metadata><defs
     id="defs201" /><sodipodi:namedview
     pagecolor="#ffffff"
     bordercolor="#666666"
     borderopacity="1"
     objecttolerance="10"
     gridtolerance="10"
     guidetolerance="10"
     inkscape:pageopacity="0"
     inkscape:pageshadow="2"
     inkscape:window-width="1920"
     inkscape:window-height="1015"
     id="namedview199"
     showgrid="false"
     inkscape:zoom="15.433962"
     inkscape:cx="26.5"
     inkscape:cy="26.5"
     inkscape:window-x="0"
     inkscape:window-y="0"
     inkscape:window-maximized="1"
     inkscape:current-layer="_x30_" /><style
     type="text/css"
     id="style2">
	.st0{fill:#44F0D1;}
	.st1{fill:#09D4B0;}
	.st2{fill:#7F7FE4;}
	.st3{fill:#5252C9;}
	.st4{fill:#E6DA6E;}
	.st5{fill:#CABD4B;}
	.st6{fill:#66A2F6;}
	.st7{fill:#247EFF;}
	.st8{display:none;}
	
		.st9{display:inline;fill:none;stroke:#000000;stroke-width:0.7087;stroke-linecap:round;stroke-linejoin:round;stroke-miterlimit:10;}
</style><g
     id="SPLINE_11_"
     transform="matrix(0.08652908,0,0,0.08652908,-0.03825845,-7.7434173)"><g
       id="XMLID_1_"><g
         id="g60"><path
           class="st0"
           d="m 162.2,595.7 -33.3,33.3 -6,-1 -5.7,-1.3 -5.4,-1.6 -2.6,-0.9 -2.5,-1 -2.4,-1.1 -2.3,-1.2 -2.3,-1.2 -2.2,-1.3 -2.1,-1.4 -2,-1.5 -1.9,-1.6 -1.8,-1.7 -1.7,-1.8 -1.6,-1.9 -1.5,-2 -1.4,-2.1 -1.3,-2.2 -1.2,-2.3 -1.2,-2.4 -1.1,-2.5 -1,-2.6 -0.9,-2.6 -1.6,-5.5 -1.3,-5.8 -1,-6.1 33.2,-33.2 c 15.3,21.6 34.2,40.7 56.1,56.5 z"
           id="path4"
           inkscape:connector-curvature="0"
           style="fill:#44f0d1" /><path
           class="st0"
           d="M 156.6,488.6 106,539.2 C 84.1,508.7 69.3,473.3 63.1,435.5 h 71.6 c 4.4,19 11.8,36.9 21.9,53.1 z"
           id="path6"
           inkscape:connector-curvature="0"
           style="fill:#44f0d1" /><path
           class="st0"
           d="m 548.9,356.5 h -71.6 c -4.4,-18.9 -11.8,-36.8 -21.9,-53 l 50.7,-50.7 c 21.9,30.4 36.6,65.9 42.8,103.7 z"
           id="path8"
           inkscape:connector-curvature="0"
           style="fill:#44f0d1"
           sodipodi:nodetypes="ccccc" /><path
           class="st0"
           d="m 538.3,213.5 1,6.1 -33.2,33.2 c -16.1955,-21.55581 -34.75355,-39.88241 -56.3,-56.5 v 0 l 33.3,-33.3 6,1 5.7,1.3 5.4,1.6 2.6,0.9 2.5,1 2.4,1.1 2.4,1.2 2.3,1.2 2.2,1.3 2.1,1.4 2,1.5 1.9,1.6 1.8,1.7 1.7,1.8 1.6,1.9 1.5,2 1.4,2.1 1.3,2.2 1.2,2.3 1.2,2.4 1.1,2.5 1,2.6 0.9,2.6 1.6,5.5 z"
           id="path10"
           inkscape:connector-curvature="0"
           style="fill:#44f0d1"
           sodipodi:nodetypes="ccccccccccccccccccccccccccccccc" /><path
           class="st1"
           d="m 212.8,545.1 -50.6,50.6 v 0 c -21.9,-15.8 -40.8,-35 -56.3,-56.5 l 50.6,-50.6 c 14.1,22.7 33.3,42.1 56.3,56.5 z"
           id="path12"
           inkscape:connector-curvature="0"
           style="fill:#09d4b0" /><path
           class="st1"
           d="m 506.1,252.8 -50.6,50.6 c -14,-22.7 -33.2,-42.1 -56.3,-56.5 l 50.6,-50.6 c 21.9,15.8 40.8,34.9 56.3,56.5 z"
           id="path14"
           inkscape:connector-curvature="0"
           style="fill:#09d4b0" /><path
           class="st2"
           d="M 345.5,638.9 V 686 l -4.9,3.6 -4.9,3.2 -4.9,2.7 -4.9,2.3 -5,1.8 -5,1.3 -5,0.8 -5,0.3 -5,-0.3 -5,-0.8 -5,-1.4 -5,-1.8 -5,-2.3 -5,-2.8 -5,-3.2 -5,-3.6 -0.2,-47.1 c 26.1,4.2 53.2,4.5 79.8,0.2 z"
           id="path16"
           inkscape:connector-curvature="0"
           style="fill:#7f7fe4"
           sodipodi:nodetypes="cccccccccccccccccccc" /><path
           class="st2"
           d="m 265.8,567.1 v 71.6 c -37,-6.1 -72.5,-20.7 -103.6,-43 l 50.6,-50.6 c 16.5,10.3 34.4,17.7 53,22 z"
           id="path18"
           inkscape:connector-curvature="0"
           style="fill:#7f7fe4" /><path
           class="st2"
           d="m 449.8,196.3 v 0 0 l -50.6,50.6 c -16.5,-10.3 -34.4,-17.7 -53,-22.1 v -71.7 c 37.1,6.2 72.6,20.8 103.6,43.2 z"
           id="path20"
           inkscape:connector-curvature="0"
           style="fill:#7f7fe4" /><path
           class="st3"
           d="m 346.2,224.8 -2.5,5 -2.5,4.7 -2.5,4.4 -2.5,4.1 -2.5,3.8 -2.5,3.5 -2.5,3.2 -2.5,2.9 -2.5,2.6 -2.5,2.3 -2.5,1.9 -2.5,1.6 -2.5,1.3 -2.7,0.9 -2.5,0.5 -2.5,0.2 -2.5,-0.2 -2.5,-0.5 -2.5,-0.9 -2.5,-1.3 -2.5,-1.6 -2.5,-1.9 -2.5,-2.3 -2.5,-2.6 -2.5,-2.9 -2.5,-3.2 -2.5,-3.5 -2.5,-3.8 -2.5,-4.1 -2.5,-4.4 -2.5,-4.7 -2,-5.1 c 28.11875,-7.26875 54.34062,-7.65625 79.7,0.1 z m -27.7,13 c 0,-6.9 -5.6,-12.4 -12.5,-12.4 -6.9,0 -12.5,5.6 -12.5,12.4 0,6.9 5.6,12.5 12.5,12.5 6.9,0 12.5,-5.6 12.5,-12.5 z"
           id="path22"
           inkscape:connector-curvature="0"
           style="fill:#5252c9"
           sodipodi:nodetypes="ccccccccccccccccccccccccccccccccccsssss" /><path
           class="st3"
           d="m 343.1,562.3 2.4,4.9 c -26.69839,6.95968 -55.39524,7.54799 -79.7,-0.1 l 2.5,-4.9 2.5,-4.7 2.5,-4.4 2.5,-4.1 2.5,-3.8 2.5,-3.5 2.5,-3.2 2.5,-2.9 2.5,-2.6 2.5,-2.3 2.5,-1.9 2.5,-1.6 2.5,-1.3 2.5,-0.9 2.5,-0.5 2.5,-0.2 2.5,0.2 2.5,0.5 2.5,0.9 2.5,1.3 2.5,1.6 2.5,1.9 2.5,2.3 2.5,2.6 2.5,2.9 2.5,3.2 2.5,3.5 2.5,3.8 2.5,4.1 2.5,4.4 z m -24.6,-8.1 c 0,-6.9 -5.6,-12.5 -12.5,-12.5 -6.9,0 -12.5,5.6 -12.5,12.5 0,6.9 5.6,12.5 12.5,12.5 6.9,0 12.5,-5.6 12.5,-12.5 z"
           id="path24"
           inkscape:connector-curvature="0"
           style="fill:#5252c9"
           sodipodi:nodetypes="ccccccccccccccccccccccccccccccccccsssss" /><path
           class="st3"
           d="m 345.5,567.2 v 71.7 c -26.7,4.3 -53.6,4.2 -79.8,-0.2 l 0.1,-71.6 c 26.1,6.1 53.3,6.2 79.7,0.1 z"
           id="path26"
           inkscape:connector-curvature="0"
           style="fill:#5252c9"
           sodipodi:nodetypes="ccccc" /><path
           class="st3"
           d="m 346.2,224.8 c -26,-6.1 -53.2,-6.3 -79.7,-0.1 v -71.6 c 26.7,-4.3 53.5,-4.3 79.7,0 z"
           id="path28"
           inkscape:connector-curvature="0"
           style="fill:#5252c9"
           sodipodi:nodetypes="ccccc" /><path
           class="st4"
           d="m 539,573.1 -1,6 -1.3,5.7 -1.6,5.4 -0.9,2.6 -1,2.5 -1.1,2.4 -1.2,2.4 -1.2,2.3 -1.3,2.2 -1.4,2.1 -1.5,2 -1.6,1.9 -1.7,1.8 -1.8,1.7 -1.9,1.6 -2,1.5 -2.1,1.4 -2.2,1.3 -2.3,1.2 -2.4,1.2 -2.5,1.1 -2.6,1 -2.6,0.9 -5.5,1.6 -5.8,1.3 -6.1,1 -33.2,-33.2 c 21.6,-15.4 40.7,-34.4 56.5,-56.3 z"
           id="path30"
           inkscape:connector-curvature="0"
           style="fill:#e6da6e" /><path
           class="st4"
           d="m 398.6,545.4 50.6,50.6 c -30.5,21.8 -65.9,36.7 -103.7,42.8 v -71.6 c 19,-4.3 36.9,-11.7 53.1,-21.8 z"
           id="path32"
           inkscape:connector-curvature="0"
           style="fill:#e6da6e" /><path
           class="st4"
           d="m 266.5,153.1 v 71.6 c -18.9,4.4 -36.9,11.8 -53.1,21.8 l -50.6,-50.6 c 29.6,-21.2 63.9,-35.8 100.4,-42.3 1,-0.1 2.1,-0.3 3.3,-0.5 z"
           id="path34"
           inkscape:connector-curvature="0"
           style="fill:#e6da6e"
           sodipodi:nodetypes="cccccc" /><path
           class="st4"
           d="m 129.6,162.7 33.2,33.2 c -21.29064,15.44419 -40.50113,34.46629 -56.5,56.3 L 73,218.9 l 0.9,-6 1.3,-5.7 1.6,-5.4 0.9,-2.6 1,-2.5 1.1,-2.4 1.2,-2.4 1.2,-2.3 1.3,-2.2 1.4,-2.1 1.5,-2 1.6,-1.9 1.7,-1.8 1.8,-1.7 1.9,-1.6 2,-1.5 2.1,-1.4 2.2,-1.3 2.3,-1.2 2.4,-1.2 2.5,-1.1 2.6,-1 2.6,-0.9 5.5,-1.6 5.8,-1.3 z"
           id="path36"
           inkscape:connector-curvature="0"
           style="fill:#e6da6e"
           sodipodi:nodetypes="cccccccccccccccccccccccccccccc" /><path
           class="st5"
           d="m 455.1,489.2 50.7,50.6 c -15.8,21.9 -35,40.8 -56.5,56.3 l -50.6,-50.6 c 22.6,-14.1 42,-33.3 56.4,-56.3 z"
           id="path38"
           inkscape:connector-curvature="0"
           style="fill:#cabd4b" /><path
           class="st5"
           d="m 162.8,195.9 50.6,50.6 c -22.7,14 -42.1,33.2 -56.5,56.3 l -50.7,-50.6 v 0 c 15.9,-21.9 35,-40.8 56.6,-56.3 z"
           id="path40"
           inkscape:connector-curvature="0"
           style="fill:#cabd4b" /><path
           class="st6"
           d="m 106.3,252.2 50.7,50.6 c -10.3,16.5 -17.7,34.4 -22.1,53 H 63.1 c 6.1,-37 20.9,-72.5 43.2,-103.6 z"
           id="path42"
           inkscape:connector-curvature="0"
           style="fill:#66a2f6"
           sodipodi:nodetypes="ccccc" /><path
           class="st6"
           d="m 16.4,355.8 h 46.7 c -4.3,26.2 -4.3,53.1 0,79.8 H 16 l -3.6,-4.9 -3.2,-4.9 -2.7,-4.9 -2.3,-4.9 -1.8,-5 -1.3,-5 -0.8,-5 -0.2,-5 0.3,-5 0.8,-5 1.3,-5 1.8,-5 2.3,-5 2.8,-5 3.2,-5 z"
           id="path44"
           inkscape:connector-curvature="0"
           style="fill:#66a2f6"
           sodipodi:nodetypes="cccccccccccccccccccc" /><path
           class="st6"
           d="M 505.7,539.8 455,489.2 c 10.3,-16.5 17.7,-34.4 22.1,-53 h 71.6 c -6.1,37 -20.7,72.5 -43,103.6 z"
           id="path46"
           inkscape:connector-curvature="0"
           style="fill:#66a2f6" /><path
           class="st6"
           d="m 611.6,391.1 0.3,5 -0.3,5 -0.8,5 -1.4,5 -1.8,5 -2.3,5 -2.8,5 -3.2,5 -3.6,5.1 h -47 c 3.425,-26.16875 3.59375,-52.65625 0.2,-79.7 H 596 l 3.6,4.7 3.2,4.9 2.7,4.9 2.3,4.9 1.8,5 1.3,5 z"
           id="path48"
           inkscape:connector-curvature="0"
           style="fill:#66a2f6"
           sodipodi:nodetypes="cccccccccccccccccccc" /><path
           class="st7"
           d="m 139.7,433.1 -5,2.4 c -6.1,-26.5 -7.74375,-54.0125 0.2,-79.7 l 4.9,2.5 4.7,2.5 4.4,2.5 4.1,2.5 3.8,2.5 3.5,2.5 3.2,2.5 2.9,2.5 2.6,2.5 2.3,2.5 1.9,2.5 1.6,2.5 1.3,2.5 0.9,2.5 0.5,2.5 0.2,2.5 -0.2,2.5 -0.5,2.5 -0.9,2.5 -1.3,2.5 -1.6,2.5 -1.9,2.5 -2.3,2.5 -2.6,2.5 -2.9,2.5 -3.2,2.5 -3.5,2.5 -3.8,2.5 -4.1,2.5 -4.4,2.5 z M 160.2,396 c 0,-6.9 -5.6,-12.5 -12.5,-12.5 -6.9,0 -12.4,5.6 -12.4,12.5 0,6.9 5.6,12.5 12.4,12.5 7,0 12.5,-5.6 12.5,-12.5 z"
           id="path50"
           inkscape:connector-curvature="0"
           style="fill:#247eff"
           sodipodi:nodetypes="ccccccccccccccccccccccccccccccccccsssss" /><path
           class="st7"
           d="m 63.1,355.8 h 71.8 c -4.9125,26.0625 -3.9625,52.2625 -0.2,79.7 l -71.6,0.1 c -4.3,-26.7 -4.4,-53.6 0,-79.8 z"
           id="path52"
           inkscape:connector-curvature="0"
           style="fill:#247eff"
           sodipodi:nodetypes="ccccc" /><path
           class="st7"
           d="m 477.3,356.5 c 11.6,26.5 12.05,53.675 -0.2,79.8 l -4.8,-2.5 -4.7,-2.5 -4.4,-2.5 -4.1,-2.5 -3.8,-2.5 -3.5,-2.5 -3.2,-2.5 -2.9,-2.5 -2.6,-2.5 -2.3,-2.5 -1.9,-2.5 -1.6,-2.5 -1.3,-2.5 -1,-2.8 -0.5,-2.5 -0.2,-2.5 0.2,-2.5 0.5,-2.5 0.9,-2.5 1.3,-2.5 1.6,-2.5 1.9,-2.5 2.3,-2.5 2.6,-2.5 2.9,-2.5 3.2,-2.5 3.5,-2.5 3.8,-2.5 4.1,-2.5 4.4,-2.5 4.7,-2.5 z m -0.6,39.5 c 0,-6.9 -5.6,-12.5 -12.5,-12.5 -6.9,0 -12.5,5.6 -12.5,12.5 0,6.9 5.6,12.5 12.5,12.5 6.9,0 12.5,-5.6 12.5,-12.5 z"
           id="path54"
           inkscape:connector-curvature="0"
           style="fill:#247eff"
           sodipodi:nodetypes="ccccccccccccccccccccccccccccccccccsssss" /><path
           class="st7"
           d="m 548.9,356.5 c 4.3,26.7 4.2,53.6 -0.2,79.8 h -71.6 c 6.1,-26 6.3,-53.3 0.1,-79.8 z"
           id="path56"
           inkscape:connector-curvature="0"
           style="fill:#247eff" /><path
           class="st2"
           d="m 346.2,106.3 v 46.8 c -26.7625,-4.1125 -52.3125,-4.1125 -79.7,0 l -0.1,-47 1.6,-1.8 1.7,-1.7 1.8,-1.6 2,-1.5 2.1,-1.4 2.2,-1.3 2.4,-1.2 2.5,-1.1 2.6,-1 2.7,-0.8 2.8,-0.7 2.9,-0.6 6.1,-0.8 6.3,-0.3 6.3,0.3 6.1,0.8 2.9,0.6 2.8,0.7 2.7,0.9 2.6,1 2.5,1.1 2.4,1.2 2.3,1.3 2.1,1.4 2,1.6 1.9,1.7 1.8,1.8 z"
           id="path58"
           inkscape:connector-curvature="0"
           style="fill:#7f7fe4"
           sodipodi:nodetypes="cccccccccccccccccccccccccccccccc" /></g></g></g></svg>