<?xml version="1.0" encoding="UTF-8" standalone="no"?>
<svg width="252px" height="80px" viewBox="0 0 252 80" version="1.1" xmlns="http://www.w3.org/2000/svg" xmlns:xlink="http://www.w3.org/1999/xlink" xmlns:sketch="http://www.bohemiancoding.com/sketch/ns">
    <!-- Generator: Sketch Beta 3.0.4 (8156) - http://www.bohemiancoding.com/sketch -->
    <title>asq_letter_lightBG</title>
    <desc>Created with Sketch Beta.</desc>
    <defs>
        <path id="path-1" d="M0.06,-0.35 L253.009,-0.35 L253.009,80 L0.06,80"></path>
    </defs>
    <g id="Page-1" stroke="none" stroke-width="1" fill="none" fill-rule="evenodd" sketch:type="MSPage">
        <g id="asq_letter_lightBG" sketch:type="MSLayerGroup" transform="translate(0.000000, 1.000000)">
            <path d="M253.009,7.16 C253.009,10.832 250.032,13.809 246.358,13.809 C242.686,13.809 239.71,10.832 239.71,7.16 C239.71,3.486 242.686,0.511 246.358,0.511 C250.032,0.511 253.009,3.486 253.009,7.16" id="Fill-1" fill="#3F413E" sketch:type="MSShapeGroup"></path>
            <g id="Group-5">
                <mask id="mask-2" sketch:name="Clip 3" fill="white">
                    <use xlink:href="#path-1"></use>
                </mask>
                <g id="Clip-3"></g>
                <path d="M253.009,26.381 C253.009,30.053 250.032,33.03 246.358,33.03 C242.686,33.03 239.71,30.053 239.71,26.381 C239.71,22.709 242.686,19.731 246.358,19.731 C250.032,19.731 253.009,22.709 253.009,26.381" id="Fill-2" fill="#3F413E" sketch:type="MSShapeGroup" mask="url(#mask-2)"></path>
                <path d="M44.366,5.387 C41.712,12.36 36.179,18.432 30.536,18.432 C27.106,18.432 24.784,17.644 20.801,14.385 C17.924,12.135 16.485,10.561 13.72,10.561 C9.739,10.561 8.52,15.059 6.638,18.097 L0,12.36 C2.545,5.612 7.854,-0.35 14.494,-0.35 C19.472,-0.35 22.017,1.675 23.898,2.913 C27.106,5.05 28.988,6.96 30.757,6.96 C34.077,6.96 35.735,3.138 37.837,-0.35 L44.366,5.387" id="Fill-4" fill="#3F413E" sketch:type="MSShapeGroup" mask="url(#mask-2)"></path>
            </g>
            <path d="M41.448,66.365 C39.661,66.365 38.073,64.929 38.073,62.984 L38.073,47.125 C38.073,45.181 39.692,43.72 41.479,43.72 L75.511,43.72 C77.299,43.72 78.886,45.165 78.886,47.109 L78.901,66.375 L41.448,66.365 L41.448,66.365 Z M24.479,30.094 L24.479,80 L92.504,79.997 L92.504,0.623 L65.459,0.623 L51.835,14.248 L74.319,14.248 C76.546,14.248 78.917,16.368 78.917,18.906 L78.917,30.1 L24.479,30.094 L24.479,30.094 Z" id="Fill-6" fill="#3E3E3C" sketch:type="MSShapeGroup"></path>
            <path d="M187.746,66.365 L187.722,18.828 C187.722,16.291 189.778,14.232 192.319,14.232 L210.345,14.232 C212.88,14.232 214.94,16.291 214.94,18.828 L214.954,54.965 C209.288,54.985 203.456,60.286 203.538,66.36 M252.032,44.88 L239.642,44.882 C239.712,49.086 238.745,54.638 235.339,55.81 C233.684,56.379 231.214,56.794 228.567,55.84 L228.567,0.604 L174.148,0.604 L174.133,79.95 L214.923,79.95 L223.409,71.52 L228.479,71.513 C235.396,71.513 237.667,70.466 239.712,69.588 C245.727,67.006 251.11,59.862 252.001,51.361 C252.231,49.16 252.032,44.88 252.032,44.88" id="Fill-7" fill="#3E3E3C" sketch:type="MSShapeGroup"></path>
            <path d="M160.524,0.602 L146.962,14.117 C146.962,14.117 123.035,14.123 121.535,14.123 C118.021,14.123 116.493,18.956 118.618,21.539 C120.076,23.31 125.983,26.591 125.983,26.591 C125.983,26.591 152.322,40.983 161.118,46.789 C167.368,50.914 168.118,54.744 168.118,60.789 C168.118,77.435 154.795,79.966 150.733,79.966 C146.67,79.966 99.306,79.976 99.306,79.976 L112.681,66.352 L149.774,66.341 C149.774,66.341 153.446,66.523 153.446,62.226 C153.446,59.742 151.524,58.773 150.152,57.9 C148.253,56.692 138.673,51.797 136.751,50.776 C132.078,48.296 119.886,41.193 114.858,38.153 C112.066,36.466 98.483,30.049 102.066,14.299 C103.931,6.106 112.868,0.582 122.181,0.539 C123.931,0.531 160.524,0.602 160.524,0.602" id="Fill-8" fill="#3F413E" sketch:type="MSShapeGroup"></path>
        </g>
    </g>
</svg>