<?xml version="1.0" encoding="UTF-8" standalone="no"?>
<svg
   xmlns:dc="http://purl.org/dc/elements/1.1/"
   xmlns:cc="http://creativecommons.org/ns#"
   xmlns:rdf="http://www.w3.org/1999/02/22-rdf-syntax-ns#"
   xmlns:svg="http://www.w3.org/2000/svg"
   xmlns="http://www.w3.org/2000/svg"
   viewBox="0 0 1567.2667 384.14667"
   height="384.14667"
   width="1567.2667"
   xml:space="preserve"
   id="svg2"
   version="1.1"><metadata
     id="metadata8"><rdf:RDF><cc:Work
         rdf:about=""><dc:format>image/svg+xml</dc:format><dc:type
           rdf:resource="http://purl.org/dc/dcmitype/StillImage" /></cc:Work></rdf:RDF></metadata><defs
     id="defs6" /><g
     transform="matrix(1.3333333,0,0,-1.3333333,0,384.14667)"
     id="g10"><g
       transform="scale(0.1)"
       id="g12"><path
         id="path14"
         style="fill:#98d320;fill-opacity:1;fill-rule:nonzero;stroke:none"
         d="m 2698.68,1721.13 -173.2,300 c -15.4,26.67 -53.89,26.67 -69.29,0 l -173.2,-300 c -14.29,-24.75 -14.29,-55.24 0,-80 l 173.2,-300 c 15.4,-26.67 53.89,-26.67 69.29,0 l 173.2,300 c 14.29,24.76 14.29,55.25 0,80" /><path
         id="path16"
         style="fill:#333232;fill-opacity:1;fill-rule:nonzero;stroke:none"
         d="m 1401.43,1961.1 h -396.19 c -30.791,0 -50.029,-33.33 -34.638,-59.99 L 1050.34,1763 c 72.09,-124.86 205.33,-201.78 349.51,-201.78 h 396.19 c 30.78,0 50.03,33.32 34.63,59.98 l -79.73,138.11 c -72.09,124.87 -205.33,201.79 -349.51,201.79" /><path
         id="path18"
         style="fill:#333232;fill-opacity:1;fill-rule:nonzero;stroke:none"
         d="m 1994.31,2141.13 c 15.4,-26.67 53.89,-26.67 69.29,0 l 173.2,300.01 c 14.29,24.75 14.29,55.24 0,79.99 l -115.47,200 c -57.16,99.01 -162.8,160 -277.13,160 H 40.0625 c -30.79687,0 -50.03906,-33.33 -34.64453,-60 l 80.83593,-140 c 71.4491,-123.76 203.5001,-200 346.4061,-200 H 707.918 L 448.402,2407.67 C 388.277,2390.65 337.16,2350.86 305.922,2296.75 L 42.875,1841.13 c -57.1641,-99.01 -57.1641,-221 0,-320 L 550.941,641.129 c 57.161,-99 162.801,-160 277.129,-160 H 1844.2 c 114.33,0 219.97,61 277.13,160 l 115.47,200 c 14.29,24.762 14.29,55.242 0,80 l -173.2,300.001 c -15.4,26.66 -53.89,26.66 -69.29,0 l -150.1,-260.001 c -28.58,-49.5 -81.4,-80 -138.56,-80 H 966.629 c -57.164,0 -109.984,30.5 -138.566,80 L 458.566,1601.13 c -28.582,49.5 -28.582,110.49 0,160 l 369.504,640 c 28.578,49.5 81.399,80 138.563,80 h 739.007 c 57.16,0 109.98,-30.5 138.56,-80 l 150.11,-260" /><path
         id="path20"
         style="fill:#333232;fill-opacity:1;fill-rule:nonzero;stroke:none"
         d="m 4111.81,1293.67 h 497.88 c 79.7,0 144.31,-64.61 144.31,-144.31 v -1.75 c 0,-15.67 -12.71,-28.37 -28.38,-28.37 h -782.54 c -15.68,0 -28.38,12.7 -28.38,28.37 v 1064.92 c 0,15.68 12.7,28.38 28.38,28.38 h 774.72 c 15.67,0 28.37,-12.7 28.37,-28.38 v -1.74 c 0,-79.7 -64.6,-144.31 -144.3,-144.31 h -490.06 v -772.81" /><path
         id="path22"
         style="fill:#333232;fill-opacity:1;fill-rule:nonzero;stroke:none"
         d="m 5058.19,1143.14 392.23,547.77 -376.7,529.02 c -6.69,9.4 0.02,22.43 11.56,22.43 h 86.04 c 74.39,0 144.05,-36.43 186.48,-97.53 l 211.51,-304.53 212.27,304.77 c 42.45,60.95 112.04,97.29 186.31,97.29 h 79.95 c 11.54,0 18.26,-13.04 11.56,-22.43 l -375.11,-525.89 390.86,-550.96 c 6.66,-9.39 -0.06,-22.4 -11.58,-22.4 h -86.08 c -74.39,0 -144.07,36.46 -186.5,97.57 l -227.15,327.17 -227.92,-327.41 c -42.45,-60.97 -112.05,-97.33 -186.35,-97.33 h -79.85 c -11.55,0 -18.26,13.07 -11.53,22.46" /><path
         id="path24"
         style="fill:#333232;fill-opacity:1;fill-rule:nonzero;stroke:none"
         d="m 6490.82,1681.13 c 0,-72.7 16.04,-139.51 48.11,-200.44 32.07,-60.93 77.43,-109.44 136.1,-145.53 58.66,-36.08 124.23,-54.13 196.72,-54.13 72.47,0 137.78,17.91 195.94,53.74 58.14,35.82 103.11,84.07 134.93,144.74 31.8,60.67 47.71,127.88 47.71,201.62 0,72.7 -16.17,139.51 -48.49,200.44 -32.35,60.92 -77.83,109.43 -136.5,145.53 -58.66,36.08 -124.24,54.12 -196.71,54.12 -72.49,0 -137.81,-17.91 -195.95,-53.73 -58.16,-35.84 -102.99,-84.08 -134.53,-144.75 -31.57,-60.67 -47.33,-127.87 -47.33,-201.61 z m -206.5,0 c 0,78.27 14.59,152.74 43.81,223.46 29.19,70.71 69.33,132.28 120.46,184.73 51.09,52.43 113.41,94.19 186.94,125.23 73.53,31.04 152.26,46.58 236.22,46.58 84.48,0 163.2,-15.26 236.22,-45.79 73,-30.53 134.93,-71.88 185.77,-124.06 50.85,-52.19 90.74,-113.77 119.68,-184.73 28.95,-70.96 43.42,-146.1 43.42,-225.42 0,-78.17 -14.61,-152.71 -43.81,-223.56 -29.21,-70.88 -69.36,-132.49 -120.46,-184.87 -51.11,-52.37 -113.55,-94.05 -187.33,-125.07 -73.8,-30.99 -152.67,-46.5 -236.61,-46.5 -112.13,0 -213.04,26.18 -302.72,78.55 -89.7,52.37 -159.06,122.59 -208.07,210.67 -49.02,88.07 -73.52,184.99 -73.52,290.78" /><path
         id="path26"
         style="fill:#333232;fill-opacity:1;fill-rule:nonzero;stroke:none"
         d="m 7854.82,1149.07 v 1064.91 c 0,15.67 12.7,28.38 28.38,28.38 h 43.3 c 70.23,0 136.52,-32.51 179.53,-88.06 l 532.55,-687.89 v 612.28 c 0,90.4 73.28,163.67 163.67,163.67 h 1.93 c 15.68,0 28.38,-12.71 28.38,-28.38 V 1149.07 c 0,-15.67 -12.7,-28.39 -28.38,-28.39 h -25.41 c -70.18,0 -136.41,32.46 -179.42,87.91 l -550.55,709.94 v -634.18 c 0,-90.39 -73.27,-163.67 -163.66,-163.67 h -1.94 c -15.68,0 -28.38,12.72 -28.38,28.39" /><path
         id="path28"
         style="fill:#333232;fill-opacity:1;fill-rule:nonzero;stroke:none"
         d="m 9262.62,1596.26 v 617.72 c 0,15.67 12.7,28.38 28.38,28.38 h 1.97 c 92.1,0 166.76,-74.66 166.76,-166.77 v -472.55 c 0,-102.9 24.89,-182.03 74.71,-237.39 49.78,-55.37 119.27,-83.05 208.44,-83.05 88.65,0 157.87,26.64 207.68,79.9 49.74,53.28 74.74,130.86 74.74,232.7 v 480.39 c 0,92.11 74.6,166.77 166.7,166.77 h 2 c 15.7,0 28.4,-12.71 28.4,-28.38 v -607.55 c 0,-163.76 -42.9,-288.63 -128.7,-374.68 -85.8,-86.03 -203.76,-129.06 -353.94,-129.06 -148.61,0 -265.3,42.24 -350.03,126.72 -84.76,84.47 -127.11,206.76 -127.11,366.85" /><path
         id="path30"
         style="fill:#333232;fill-opacity:1;fill-rule:nonzero;stroke:none"
         d="m 10652.4,1149.07 v 1064.91 c 0,15.67 12.7,28.38 28.4,28.38 h 58.1 c 77.2,0 149.2,-39.27 191,-104.24 l 274,-426.09 274,426.09 c 41.8,64.97 113.7,104.24 191,104.24 h 57.3 c 15.6,0 28.3,-12.71 28.3,-28.38 V 1149.07 c 0,-15.67 -12.7,-28.39 -28.3,-28.39 h -5.1 c -90.4,0 -163.7,73.28 -163.7,163.67 v 640.44 l -341.8,-511.28 c -5.6,-8.37 -17.9,-8.41 -23.6,-0.09 l -345.6,508.24 v -637.31 c 0,-90.39 -73.3,-163.67 -163.7,-163.67 h -1.9 c -15.7,0 -28.4,12.72 -28.4,28.39" /><path
         id="path32"
         style="fill:#333232;fill-opacity:1;fill-rule:nonzero;stroke:none"
         d="M 4529.91,1656.49 H 3976.5 c -15.68,0 -28.38,12.71 -28.38,28.38 v 1.74 c 0,79.7 64.6,144.31 144.3,144.31 h 553.41 c 15.68,0 28.38,-12.71 28.38,-28.38 v -1.75 c 0,-79.69 -64.6,-144.3 -144.3,-144.3" /><path
         id="path34"
         style="fill:#98d320;fill-opacity:1;fill-rule:nonzero;stroke:none"
         d="m 6820.75,360.102 c 19.79,0 32.4,13.039 35.31,33.32 4.35,27.578 -8.68,34.367 -24.63,34.367 h -60.9 l -10.67,-67.687 z m -20.26,-148.903 c 19.78,0 33.79,10.672 38.64,41.121 3.83,22.149 -0.96,43.012 -25.16,43.012 h -64.78 l -13.52,-84.133 z m -98.62,285.242 h 145.94 c 73.94,0 95.72,-47.902 87.51,-103.019 -5.28,-34.774 -28.55,-63.293 -61.86,-67.16 29.92,-4.813 50.76,-40.102 44.51,-88.492 -11.69,-82.622 -50.33,-95.18 -124.75,-95.18 h -147.46 l 56.11,353.851" /><path
         id="path36"
         style="fill:#98d320;fill-opacity:1;fill-rule:nonzero;stroke:none"
         d="m 6979.79,484.809 c 0.97,7.281 5.77,12.07 13.52,12.07 h 60.42 c 7.28,0 9.75,-5.328 8.73,-12.07 l -7.27,-48.829 c -0.93,-7.269 -6.26,-11.148 -13.05,-11.148 h -59.98 c -6.73,0 -10.61,4.367 -9.6,11.148 z m -11.59,-85.618 h 79.27 L 7006.9,142.59 h -79.33 l 40.63,256.601" /><path
         id="path38"
         style="fill:#98d320;fill-opacity:1;fill-rule:nonzero;stroke:none"
         d="m 7471.36,399.27 h 79.27 l -27.05,-169.688 c -3.88,-24.152 3.78,-29.961 17.89,-29.961 23.17,0 37.72,5.809 53.57,20.258 l 28.13,179.391 h 79.27 l -40.63,-256.68 h -65.21 l -9.65,26.039 c -23.28,-18.367 -42.57,-30.449 -81.7,-30.449 -62.89,0 -69.14,41.109 -60.94,93.289 l 27.05,167.801" /><path
         id="path40"
         style="fill:#98d320;fill-opacity:1;fill-rule:nonzero;stroke:none"
         d="m 7732.6,399.27 h 68.61 l 5.86,-32.43 c 16.45,17.41 42.09,34.82 71.09,34.82 10.08,0 18.81,0 25.54,-2.859 l -12.06,-75.93 c -7.27,0.481 -22.75,0.481 -37.24,0.481 -24.14,0 -45.38,-2.383 -59.01,-28.512 l -24.15,-152.25 h -79.26 l 40.62,256.68" /><path
         id="path42"
         style="fill:#98d320;fill-opacity:1;fill-rule:nonzero;stroke:none"
         d="m 7999.27,399.27 10.63,-172.11 c 1.45,-16.93 15.95,-18.328 21.81,-18.82 l 54.59,131.879 c 5.34,13.09 9.66,31.523 12.57,59.492 h 74.47 c 6.26,-31.852 -4.36,-64.77 -14.06,-87.031 L 8085.33,142.59 C 8030.7,17.8906 7955.83,5.28125 7921.98,0 v 55.5586 c 44.47,22.2617 66.2,51.7814 84.08,87.0314 -45.42,0 -68.66,25.121 -72.48,69.621 l -16.44,187.059 h 82.13" /><path
         id="path44"
         style="fill:#98d320;fill-opacity:1;fill-rule:nonzero;stroke:none"
         d="m 7189.06,342.211 h 51.25 l 8.67,57.5 h -50.75 l 11.14,71.57 h -74.33 l -16.09,-71.57 h -48.35 l -8.67,-57.5 h 47.85 L 7092.86,234.43 c -10.67,-66.719 19.78,-92.36 60.41,-92.36 h 51.74 l 7.22,47.899 c -2.42,0 -25.55,9.652 -25.55,9.652 -12.13,5.809 -18.38,11.578 -12.65,49.301 l 15.03,93.289" /><path
         id="path46"
         style="fill:#98d320;fill-opacity:1;fill-rule:nonzero;stroke:none"
         d="m 7429.04,343.02 10.02,57.48 h -46.97 l 0.4,2.52 c 1.69,11.339 4.49,19.8 8.12,24.589 2.78,3.68 7.63,5.461 14.84,5.461 6.94,0 14.17,-0.48 21.5,-1.461 6.87,-0.918 13.72,-2.777 20.34,-5.55 0.03,-0.008 0.06,-0.008 0.1,-0.028 l 17.82,63.418 c -4.34,1.781 -9.08,3.36 -14.19,4.711 -6.35,1.66 -12.97,3.102 -19.69,4.281 -6.77,1.188 -13.69,2.039 -20.57,2.539 -6.82,0.508 -13,0.762 -18.38,0.762 -13.61,0 -25.32,-1.652 -34.83,-4.871 -9.92,-3.371 -18.5,-8.633 -25.51,-15.629 -6.87,-6.883 -12.4,-15.461 -16.42,-25.523 -3.77,-9.418 -6.88,-20.528 -9.23,-33.008 l -4.33,-22.211 h -37.28 l -10.13,-57.508 h 38.13 l -30.96,-190.183 -0.11,-0.368 v -0.3 c -0.47,-2.879 -1.01,-5.801 -1.73,-9.289 0.06,-0.071 0.08,-0.102 0.14,-0.18 h 78.33 l 34.42,200.32 46.17,0.028" /><path
         id="path48"
         style="fill:#98d320;fill-opacity:1;fill-rule:nonzero;stroke:none"
         d="m 6327.12,311.719 c -14.03,0 -40.31,-1.438 -55.07,-6.477 L 6255.14,168.09 c 10.44,-1.07 26.99,-1.07 36,-1.07 h 3.59 c 45.35,0 48.59,25.562 55.79,84.23 4.69,35.629 5.76,60.469 -23.4,60.469 z m -34.19,-165.938 c -18.36,0 -45.35,1.801 -62.27,3.598 l 30.95,252.332 h 21.97 l -9.73,-77.402 c 16.56,5.773 45,7.211 57.6,7.211 38.51,0 50.03,-22.321 43.19,-79.551 -9,-73.438 -19.79,-106.188 -81.71,-106.188" /><path
         id="path50"
         style="fill:#98d320;fill-opacity:1;fill-rule:nonzero;stroke:none"
         d="m 6395.18,95.3906 c 19.79,-3.6093 27,5.0394 34.2,19.7894 l 16.19,33.48 h -8.27 l -39.6,179.981 h 25.92 l 33.11,-154.789 69.83,155.148 24.84,-0.359 -98.99,-216.34 c -16.2,-35.6291 -35.27,-40.3127 -54.71,-33.469 -2.16,0.7188 -6.12,2.1485 -8.28,3.5977 l 5.76,12.9609" /><path
         id="path52"
         style="fill:#98d320;fill-opacity:1;fill-rule:nonzero;stroke:none"
         d="m 8423.4,308.309 h 89.96 L 8494.64,153.34 c -35.88,-6.238 -71.76,-9.36 -109.73,-9.36 -80.07,1.559 -115.43,21.321 -98.28,159.649 19.77,159.641 38.49,197.601 163.29,197.601 16.12,0 52.01,-2.601 79.05,-5.718 l -3.65,-29.633 c -63.96,4.672 -73.84,5.191 -79.04,5.191 -102.97,0 -108.16,-30.148 -125.32,-169.531 -7.8,-62.398 -5.21,-94.117 11.95,-110.758 26.53,-25.48 94.65,-18.722 132.09,-14.039 l 13.52,108.156 h -57.72 l 2.6,23.411" /><path
         id="path54"
         style="fill:#98d320;fill-opacity:1;fill-rule:nonzero;stroke:none"
         d="m 8687.21,402.672 -3.99,-30.992 c -21.51,-2.008 -57.01,-8.508 -86.01,-20.008 l -24.5,-203.012 h -32 l 30.49,250.02 h 26.01 l 1.49,-16.508 c 30.51,12.008 59.52,18.5 88.51,20.5" /><path
         id="path56"
         style="fill:#98d320;fill-opacity:1;fill-rule:nonzero;stroke:none"
         d="m 8862.72,273.672 c 11,88.008 6.5,104 -54.01,104 -60.49,0 -68.49,-18 -79,-104 -10.5,-85.512 -7,-102.512 53.51,-102.512 61.5,0 69,17 79.5,102.512 z m -165.51,0 c 12.5,102.5 30.5,130.008 114.51,130.008 86.01,0 96.01,-29.5 83.51,-130.008 -12,-100.512 -30.01,-129.512 -115.51,-129.512 -85.51,0 -94.51,29.5 -82.51,129.512" /><path
         id="path58"
         style="fill:#98d320;fill-opacity:1;fill-rule:nonzero;stroke:none"
         d="M 8988.22,397.672 8963.71,198.66 c -2,-16 6.51,-24.5 24.01,-24.5 18,0 61.5,4.5 98,20.512 l 25.01,203 h 32 L 9111.72,147.66 h -26 l -0.5,18 c -37,-14.5 -71.51,-21.5 -104.5,-21.5 -37.5,0 -54.01,19 -49.01,58.012 l 24.01,195.5 h 32.5" /><path
         id="path60"
         style="fill:#98d320;fill-opacity:1;fill-rule:nonzero;stroke:none"
         d="m 9298.22,374.18 c -18,0 -42.5,-6.008 -75,-21.008 L 9201.71,178.66 c 22,-5 51.01,-6 70.5,-6 h 3.51 c 40.49,0 45.49,44.512 50.49,83.512 10.51,86.5 5.51,118.008 -27.99,118.008 z m 61,-119.02 c -12,-79.5 -31,-112 -84.51,-112 -21,0 -46,2 -77,5 l -12,-100.0116 h -31.5 l 43,350.5316 h 21.5 l 3,-19.5 c 37,17.992 65.51,22.5 89.01,22.5 46,0 61.5,-38.508 50,-131.008 l -1.5,-15.512" /><path
         id="path62"
         style="fill:#98d320;fill-opacity:1;fill-rule:nonzero;stroke:none"
         d="m 4916.38,268.738 c 0,-5.527 4.48,-10 10,-10 h 1006.13 c 5.53,0 10,4.473 10,10 0,5.524 -4.47,10 -10,10 H 4926.38 c -5.52,0 -10,-4.488 -10,-10 v 0" /><path
         id="path64"
         style="fill:#98d320;fill-opacity:1;fill-rule:nonzero;stroke:none"
         d="m 10677.6,268.738 c 0,-5.527 -4.5,-10 -10,-10 H 9661.48 c -5.53,0 -10,4.473 -10,10 0,5.524 4.47,10 10,10 h 1006.12 c 5.5,0 10,-4.488 10,-10 v 0" /></g></g></svg>