<?xml version="1.0" encoding="utf-8"?>
<!-- Generator: Adobe Illustrator 18.1.1, SVG Export Plug-In . SVG Version: 6.00 Build 0)  -->
<!DOCTYPE svg PUBLIC "-//W3C//DTD SVG 1.1//EN" "http://www.w3.org/Graphics/SVG/1.1/DTD/svg11.dtd">
<svg version="1.1" id="Layer_1" xmlns="http://www.w3.org/2000/svg" xmlns:xlink="http://www.w3.org/1999/xlink" x="0px" y="0px"
	 width="454.9px" height="289.5px" viewBox="-70 276.4 454.9 289.5" enable-background="new -70 276.4 454.9 289.5"
	 xml:space="preserve">
<g>
	<g>
		
			<path opacity="0.4" fill="none" stroke="#19181E" stroke-linejoin="round" stroke-miterlimit="10" enable-background="new    " d="
			M156.9,277.9l38.3,11.7l40,66.3l-40,66.3l-38.3-11.7l-38.3,11.7l-40-66.3l40-66.3L156.9,277.9z M118.6,289.6l-40,66.3l40,66.3
			l38.3,11.7l38.3-11.7l40-66.3l-40-66.3l-38.3-11.7L118.6,289.6z M199.7,339.9l-42.8-62l-42.8,62l42.8,70.6L199.7,339.9z
			 M78.6,355.9l35.5-16L78.6,355.9z M235.1,355.9l-35.5-16"/>
		<path fill="none" stroke="#19181E" stroke-width="3" stroke-linejoin="round" stroke-miterlimit="10" d="M118.6,422.2l-40-66.3
			l40-66.3l38.3,11.7l38.3-11.7l40,66.3l-40,66.3l-38.3,11.7L118.6,422.2z M156.9,433.9l38.3-11.7l40-66.3l-40-66.3l-38.3-11.7
			l-38.3,11.7l-40,66.3l40,66.3L156.9,433.9z M156.9,301.3L114,371.9l42.8,62l42.8-62L156.9,301.3z M114,371.9l-35.5-16L114,371.9z
			 M199.7,371.9l35.5-16"/>
	</g>
	<g>
		<path fill="#19181E" d="M-33.2,529.1h-34.2v33.1h39.2v2.6H-70v-71.1h41.8v2.6h-39.2v30.1h34.2V529.1z"/>
		<path fill="#19181E" d="M37.3,496.4H12.4v68.5H9.8v-68.5h-26.7v-2.6h54.2V496.4z"/>
		<path fill="#19181E" d="M105.6,564.9H103V531H57.6v33.9H55v-71.1h2.6v34.5H103v-34.5h2.6V564.9z"/>
		<path fill="#19181E" d="M177.6,543.1l0.1,0.3c0.1,7.3-2.1,12.9-6.6,16.7c-4.5,3.8-10.5,5.8-17.9,5.8c-7.8,0-14-2.9-18.7-8.6
			s-7-13.3-7-22.6v-10.6c0-9.3,2.3-16.8,7-22.6c4.7-5.8,10.9-8.6,18.7-8.6c7.4,0,13.4,1.9,17.9,5.8s6.7,9.4,6.6,16.6l-0.1,0.3h-2.2
			c0-6.4-2-11.4-6-14.8c-4-3.5-9.4-5.2-16.2-5.2c-6.9,0-12.5,2.6-16.7,7.9c-4.2,5.2-6.3,12.1-6.3,20.7v10.7c0,8.6,2.1,15.6,6.3,20.8
			c4.2,5.2,9.8,7.8,16.7,7.8c6.8,0,12.2-1.7,16.2-5c4-3.4,6-8.4,6-15.1h2.2V543.1z"/>
		<path fill="#19181E" d="M250.2,534.6c0,9.6-2.4,17.2-7.1,22.8c-4.8,5.6-11.3,8.4-19.6,8.4c-8.4,0-14.9-2.8-19.7-8.4
			c-4.8-5.6-7.2-13.2-7.2-22.8V524c0-9.6,2.4-17.2,7.1-22.8s11.3-8.4,19.7-8.4c8.3,0,14.9,2.8,19.7,8.4c4.8,5.6,7.2,13.2,7.2,22.8
			v10.6H250.2z M247.6,523.9c0-8.7-2.1-15.7-6.3-20.8c-4.2-5.1-10.2-7.7-17.9-7.7c-7.7,0-13.7,2.6-17.8,7.7
			c-4.2,5.1-6.2,12.1-6.2,20.8v10.7c0,8.8,2.1,15.8,6.3,20.9c4.2,5.1,10.1,7.7,17.9,7.7c7.7,0,13.7-2.6,17.9-7.7
			c4.2-5.1,6.2-12.1,6.2-20.9v-10.7H247.6z"/>
		<path fill="#19181E" d="M273.9,531.5v33.4h-2.6v-71.1h23.1c7.5,0,13.2,1.6,17.3,4.9c4,3.2,6.1,8,6.1,14.2c0,4-1.3,7.6-3.8,10.9
			c-2.6,3.3-6,5.4-10.5,6.4c5.1,0.9,8.8,2.8,11,5.6c2.2,2.9,3.3,6.5,3.3,11v6.7c0,2.2,0.3,4.2,0.8,6s1.4,3.2,2.7,4.3v1.2h-2.6
			c-1.2-1.3-2.1-3-2.6-5c-0.6-2-0.9-4.2-0.9-6.6v-6.5c0-4.8-1.7-8.6-5-11.3s-8-4.1-14.1-4.1H273.9L273.9,531.5z M273.9,528.9h20
			c7.3,0,12.6-1.5,16-4.6c3.4-3.1,5.2-6.9,5.2-11.4c0-5.3-1.7-9.4-5.2-12.2c-3.5-2.8-8.6-4.2-15.5-4.2h-20.5V528.9z"/>
		<path fill="#19181E" d="M379.9,529.1h-34.2v33.1h39.2v2.6h-41.8v-71.1h41.8v2.6h-39.2v30.1h34.2V529.1z"/>
	</g>
</g>
</svg>
