<?xml version="1.0" encoding="UTF-8" standalone="no"?>
<!-- Created with Inkscape (http://www.inkscape.org/) -->
<svg xmlns:dc="http://purl.org/dc/elements/1.1/" xmlns:cc="http://creativecommons.org/ns#" xmlns:rdf="http://www.w3.org/1999/02/22-rdf-syntax-ns#" xmlns:svg="http://www.w3.org/2000/svg" xmlns="http://www.w3.org/2000/svg" xmlns:sodipodi="http://sodipodi.sourceforge.net/DTD/sodipodi-0.dtd" xmlns:inkscape="http://www.inkscape.org/namespaces/inkscape" width="300" height="64.212997" id="svg2" version="1.1" inkscape:version="0.48.2 r9819" sodipodi:docname="Microsoft.svg">
  <defs id="defs4"/>
  <sodipodi:namedview id="base" pagecolor="#ffffff" bordercolor="#666666" borderopacity="1.0" inkscape:pageopacity="0.0" inkscape:pageshadow="2" inkscape:zoom="2.6375083" inkscape:cx="194.20075" inkscape:cy="15.579232" inkscape:document-units="px" inkscape:current-layer="layer1" showgrid="false" inkscape:window-width="1299" inkscape:window-height="1036" inkscape:window-x="618" inkscape:window-y="-3" inkscape:window-maximized="0" fit-margin-top="0.1" fit-margin-left="0.1" fit-margin-right="0.1" fit-margin-bottom="0.1">
    <inkscape:grid type="xygrid" id="grid2996" empspacing="5" visible="true" enabled="true" snapvisiblegridlinesonly="true"/>
  </sodipodi:namedview>
  <metadata id="metadata7">
    <rdf:RDF>
      <cc:Work rdf:about="">
        <dc:format>image/svg+xml</dc:format>
        <dc:type rdf:resource="http://purl.org/dc/dcmitype/StillImage"/>
        <dc:title/>
      </cc:Work>
    </rdf:RDF>
  </metadata>
  <g inkscape:label="Layer 1" inkscape:groupmode="layer" id="layer1" transform="translate(1160.1,-2740.2493)">
    <g id="g3074" transform="matrix(0.08697418,0,0,0.08697418,-1059.11,2560.4552)">
      <path style="fill:#737373;fill-opacity:1;stroke:none" d="m -132,2656.3622 -71,0 0,-441 108,0 L 20.00334,2503.7846 35.75,2549.9872 56.998994,2491.2368 170,2215.3622 l 104,0 0,441 -76,0 0,-278 c 0,-30.3949 3.125,-82.75 3.125,-82.75 l -9.625,34.75 -132.5,326 -50,0 -133,-323 -10.625,-37.25 c 0,0 2.98438,40.7207 2.625,73.25 z" id="path3034" inkscape:connector-curvature="0" sodipodi:nodetypes="cccccccccccccccccccc"/>
      <path style="fill:#737373;fill-opacity:1;stroke:none" d="m 346,2656.3622 0,-316 74,0 0,316 z" id="path3036" inkscape:connector-curvature="0"/>
      <path style="fill:#737373;fill-opacity:1;stroke:none" d="m 339,2249.3622 c 0,-24.0445 16.69069,-43 44.55806,-43 25.15308,0 45.44194,17.8332 45.44194,42 0,28.9621 -22.58336,43 -45.41984,43 -23.40873,0 -44.58016,-13.4144 -44.58016,-42 z" id="path3038" inkscape:connector-curvature="0" sodipodi:nodetypes="ccccc"/>
      <path style="fill:#737373;fill-opacity:1;stroke:none" d="m 719,2573.3622 0,69 c 0,0 -28.7819,21.75 -89,21.75 -108.33854,0 -159,-75.8861 -159,-158.75 0,-103.9831 65.38969,-173 170,-173 47.87367,0 78,16 78,16 l 0,74 c 0,0 -28.54274,-28 -75,-28 -62.72744,0 -96,49.6323 -96,105 0,60.3079 33.53999,103 95,103 46.08295,-3.0288 76,-29 76,-29 z" id="path3040" inkscape:connector-curvature="0" sodipodi:nodetypes="ccccccccccc"/>
      <path style="fill:#737373;fill-opacity:1;stroke:none" d="m 849,2656.3622 -74,0 0,-316 74,0 0,56 c 0,0 17.40676,-62 80,-62 18.77298,0 30,5 30,5 l 0,76 c 0,0 -16.75471,-13 -44,-13 -54.30494,0 -66,63.3634 -66,89 z" id="path3042" inkscape:connector-curvature="0" sodipodi:nodetypes="ccccccccccc"/>
      <path id="path3044" d="m 1130,2332.375 c -96.7938,0 -168,55.951 -168,168 0,105.7386 66.3171,163.6875 161,163.6875 98.3776,0 165,-62.5227 165,-171.6875 0,-92.6783 -54.091,-160 -158,-160 z m -7.375,62 c 0.7873,-0.018 1.5794,0 2.375,0 51.5923,0 85,31.155 85,105 0,65.8874 -28.4621,103 -83,103 -65.4245,0 -87,-52.059 -87,-103 0,-67.9243 33.0257,-103.8934 82.625,-105 z" style="fill:#737373;fill-opacity:1;stroke:none" inkscape:connector-curvature="0"/>
      <path id="path3048" d="m 1733.0625,2332.375 c -96.7938,0 -168,55.951 -168,168 0,105.7386 66.3171,163.6875 161,163.6875 98.3776,0 165,-62.5227 165,-171.6875 0,-92.6783 -54.091,-160 -158,-160 z m -7.3437,62 c 0.7872,-0.018 1.5481,0 2.3437,0 51.5923,0 85,31.155 85,105 0,65.8874 -28.4621,103 -83,103 -65.4245,0 -87,-52.059 -87,-103 0,-67.9243 33.0569,-103.8934 82.6563,-105 z" style="fill:#737373;fill-opacity:1;stroke:none" inkscape:connector-curvature="0"/>
      <path style="fill:#737373;fill-opacity:1;stroke:none" d="m 1323,2646.3622 0,-74 c 0,0 37.336,32 88,32 28.1653,0 47.3536,-8.3895 47.3536,-32 0,-56.5003 -135.3536,-33.9313 -135.3536,-142 0,-57.4773 48.1388,-98 121,-98 36.079,0 73,13 73,13 l 0,70.2929 c 0,0 -32.2257,-23.7626 -74.5581,-23.7626 -29.0533,0 -43.4419,13.1403 -43.4419,31.5858 0,26.7283 21.6085,33.4434 47.4995,44.7601 38.6897,16.9111 86.9424,35.1657 86.9424,96.8586 0,60.4415 -49.7967,99.2652 -124.4419,99.2652 -49.6531,0 -86,-18 -86,-18 z" id="path3052" inkscape:connector-curvature="0" sodipodi:nodetypes="ccccccccccsccc"/>
      <path style="fill:#737373;fill-opacity:1;stroke:none" d="m 2025,2656.3622 -75,0 0,-256 -52,0 0,-60 52,0 0,-43 c 0,-71.1817 49.623,-115 116,-115 27.363,0 42,6 42,6 l 0,65 c 0,0 -17.9798,-9 -35,-9 -38.231,0 -48,28.984 -48,60 l 0,36 112,0 0,-72 75,-22.5747 0,94.5747 75,0 0,60 -75,0 0,149 c 0,32.0189 7.3208,53 41,53 20.565,0 34,-12 34,-12 l 0,63 c 0,0 -26.1196,11 -55,11 -57.3636,0 -95,-25.5534 -95,-104 l 0,-160 -112,0 z" id="path3054" inkscape:connector-curvature="0" sodipodi:nodetypes="ccccccccccccccccccccccccccccc"/>
      <rect style="fill:#f44e24;fill-opacity:1;fill-rule:nonzero;stroke:none" id="rect3056" width="350" height="350" x="-1160" y="2068.3623" rx="0" ry="0"/>
      <rect ry="0" rx="0" y="2068.3623" x="-774" height="350" width="350" id="rect3058" style="fill:#81b900;fill-opacity:1;fill-rule:nonzero;stroke:none"/>
      <rect ry="0" rx="0" y="2454.3623" x="-1160" height="350" width="350" id="rect3060" style="fill:#01a4ef;fill-opacity:1;fill-rule:nonzero;stroke:none"/>
      <rect style="fill:#ffb902;fill-opacity:1;fill-rule:nonzero;stroke:none" id="rect3062" width="350" height="350" x="-774" y="2454.3623" rx="0" ry="0"/>
    </g>
  </g>
</svg>