<?xml version="1.0" encoding="utf-8"?>
<!-- Generator: Adobe Illustrator 19.0.1, SVG Export Plug-In . SVG Version: 6.00 Build 0)  -->
<svg version="1.1" id="Layer_1" xmlns="http://www.w3.org/2000/svg" xmlns:xlink="http://www.w3.org/1999/xlink" x="0px" y="0px"
	 viewBox="0 0 977 131" style="enable-background:new 0 0 977 131;" xml:space="preserve">
<g>
	<path d="M513,68.6l-38.2-8.3c-19.1-4.1-24.3-11.9-24.3-22.9c0-18.8,14.5-26.3,39.6-26.3c26.4,0,37.9,8.8,41.6,23.5
		c0.4,2,0.9,4.1,1.1,6.4c0,0.2,0,1.3,1.3,1.3h0.7c1.3,0,1.3-1,1.3-1.2c-0.1-2.2-0.4-4.6-1-7c-3.2-14.2-13.8-26.2-45.7-26.2
		c-28.8,0-42,10.7-42,29.1c0,15.6,9.2,22.8,28,26.7l36,7.6c17.3,3.7,24.5,11.1,24.5,23.6c0,12.7-7.6,28.5-41.4,28.5
		c-27.2,0-47.3-7.3-47.9-35.5c0-0.2,0-1.3-1.2-1.3h-0.7c-1.3,0-1.3,1-1.3,1.2c0.4,16.2,6,38.7,50.4,38.7c39.2,0,45.2-19.3,45.2-32
		C539,80.7,530.6,72.4,513,68.6z"/>
	<path d="M863,78.4c-1.2-0.1-1.7,0.7-1.8,1c-2.3,22-23.8,41.5-53.7,41.5c-29.6,0-55.7-19.7-55.7-56.2c0-36.5,26.1-56.2,55.7-56.2
		c30.4,0,46,14.1,50.7,31.1c0.1,0.4,0.7,1.5,1.9,1.2c1.1-0.2,1.3-1.2,1.2-1.7C854.8,15.4,834,5.4,807.6,5.4
		c-32.5,0-58.9,21.8-58.9,59.4c0,37.6,26.4,59.4,58.9,59.4c25.9,0,52.5-14.8,56.8-44.3C864.5,79,863.6,78.5,863,78.4z"/>
	<path d="M696.2,9.6c-0.3-0.7-1.3-1.7-2.9-1.7c-1.9,0-2.5,1-2.9,1.7c-0.9,1.5-48.5,105.8-50.1,109.2c-0.3,0.6-0.6,2.4,1.3,2.7
		c1.7,0.3,2.4-1.8,2.7-2.4c0.3-0.6,13.4-29.6,15.6-34.4c0.2-0.5,0.6-0.7,1.3-0.7h64.4c0.5,0,0.9,0.2,1.1,0.6
		c2.1,4.7,15.9,35.1,16.2,35.8c0.1,0.2,0.7,1.6,2.6,1.1c1-0.3,1.4-1.4,1-2.3C741.5,108,696.6,10.3,696.2,9.6z M723.8,80.8h-61
		c-0.5,0-0.9-0.4-0.6-1.1c4.1-8.9,30.6-67.3,30.6-67.5c0.3-0.5,0.9-0.3,1,0c0.2,0.4,26.8,59,30.5,67.2
		C724.7,80,724.3,80.8,723.8,80.8z"/>
	<path d="M380,7.9h-53.4h-0.1v0c-1,0.1-1.7,0.9-1.7,1.8v7.1c0,1,0.8,1.8,1.7,1.8v0h0.1h52.9c26.3,0,38,15.9,38,46
		c0,34.8-17.7,46-38,46h-43V56.3v-19v-0.4h-0.1c-0.2-0.8-0.9-1.4-1.8-1.4h-8.1c-0.9,0-1.6,0.6-1.8,1.4h-0.1v0.4v19v65.2h57
		c31.8,0,48.5-24.8,48.5-56.8C430.3,29.1,413.1,7.9,380,7.9z"/>
	<path d="M302,7.9h-8.1c-1,0-1.9,0.8-1.9,1.9v93.4c0,1-0.1,1.9-0.2,1.9c-0.1,0-0.7-0.6-1.3-1.4L213.5,9.4c-0.6-0.8-2-1.4-3-1.4H200
		c-1,0-1.9,0.8-1.9,1.9v109.9c0,1,0.8,1.9,1.9,1.9h8.1c1,0,1.9-0.8,1.9-1.9V26.4c0-1,0.1-1.9,0.2-1.9c0.1,0,0.7,0.6,1.3,1.4
		l77.5,94.2c0.6,0.8,2,1.4,3,1.4h10c1,0,1.9-0.8,1.9-1.9V9.8C303.8,8.8,303,7.9,302,7.9z"/>
	<path d="M139.9,7.9h-13c-1,0-2.2,0.7-2.7,1.7l-48.9,95.5c-0.5,0.9-1.2,0.9-1.7,0L24.7,9.6C24.2,8.7,23,7.9,22,7.9H8.5
		c-1,0-1.9,0.8-1.9,1.9v109.9c0,1,0.8,1.9,1.9,1.9h8.1c1,0,1.9-0.8,1.9-1.9V25.1c0-1,0.1-1.9,0.2-1.9c0.1,0,0.5,0.7,1,1.7l48.3,95
		c0.5,0.9,1.7,1.7,2.7,1.7h7.1c1,0,2.2-0.7,2.7-1.7L128.9,25c0.5-0.9,0.9-1.7,1-1.7c0.1,0,0.2,0.8,0.2,1.9v94.5c0,1,0.8,1.9,1.9,1.9
		h8.1c1,0,1.9-0.8,1.9-1.9V9.8C141.8,8.8,141,7.9,139.9,7.9z"/>
	<path d="M174,7.9h-8.1c-1,0-1.9,0.8-1.9,1.9v109.9c0,1,0.8,1.9,1.9,1.9h8.1c1,0,1.9-0.8,1.9-1.9V9.8C175.9,8.8,175,7.9,174,7.9z"/>
	<path d="M967.7,118.4h-82.6c-1,0-1.9-0.8-1.9-1.9V65.8c0-1,0.8-1.9,1.9-1.9h77.9c1,0,1.9-0.7,1.9-1.6c0-0.9-0.8-1.6-1.9-1.6h-77.9
		c-1,0-1.9-0.8-1.9-1.9V13c0-1,0.8-1.9,1.9-1.9h81.6c1,0,1.9-0.7,1.9-1.6c0-0.9-0.8-1.6-1.9-1.6H882c-1,0-1.9,0.8-1.9,1.9v109.9
		c0,1,0.8,1.9,1.9,1.9h85.7c1,0,1.9-0.7,1.9-1.6S968.7,118.4,967.7,118.4z"/>
	<path d="M613.6,7.9c0,0-57.1,0-58.9,0c-1.5,0-1.9,1.5-1.9,2.5v100.8v7.6v0.9c0,1,0.7,1.9,1.6,1.9c0.9,0,1.6-0.8,1.6-1.9v-0.9v-7.4
		V71.7c0-1.4,0.8-1.9,1.5-1.9h51.6c28.2,0,36-15.6,36-30.9C645.1,22,637.8,7.9,613.6,7.9z M610,66.7h-52.3c0,0-1.7,0-1.7-1.9V12.3
		c0-0.8,0.3-1.1,1.1-1.1h57.5c17,0,27.4,8.6,27.4,27.9C641.9,56.2,631.3,66.7,610,66.7z"/>
</g>
</svg>
