<svg width="396px" height="394px" viewBox="761 1074 396 394" version="1.1" xmlns="http://www.w3.org/2000/svg" xmlns:xlink="http://www.w3.org/1999/xlink">
    <!-- Generator: Sketch 3.7.2 (28276) - http://www.bohemiancoding.com/sketch -->
    <desc>Created with Sketch.</desc>
    <defs>
        <ellipse id="path-1" cx="198.924779" cy="197.751534" rx="158.224252" ry="158.228879"></ellipse>
    </defs>
    <g id="Group-4" opacity="0.4" stroke="none" stroke-width="1" fill="none" fill-rule="evenodd" transform="translate(762.000000, 1074.400000)">
        <g id="Group-2">
            <path d="M46.8666328,173.804672 L47.8561255,224.392255 L11.6271624,224.392255 C11.6271624,224.392255 0.168399369,217.329591 0.168399369,198.811662 C0.168399369,180.293734 11.6271624,173.804672 11.6271624,173.804672 L46.8666328,173.804672 Z" id="Path-6" fill="#D6D6D6"></path>
            <path d="M70.5669797,289.697519 L109.649979,326.483742 L88.643114,349.286015 C88.643114,349.286015 70.5669804,349.286015 59.6581231,338.006372 C48.7492657,326.726729 49.0287003,311.434581 49.0287003,311.434581 L70.5669797,289.697519 Z" id="Path-7" fill="#D6D6D6"></path>
            <path d="M171.481835,352.476095 L171.481835,381.273189 C171.481835,381.273189 176.811734,392.5944 198.276523,392.5944 C219.741312,392.5944 225.071212,381.273189 225.071212,381.273189 L225.071212,353.24994 L171.481835,352.476095 Z" id="Path-9" fill="#D6D6D6"></path>
            <path d="M286.33634,325.535781 L309.9719,348.780839 C309.9719,348.780839 325.734364,348.780839 337.981906,336.906913 C350.229449,325.032987 348.832941,310.527252 348.832941,310.527252 L325.734364,288.650394 L286.33634,325.535781 Z" id="Path-12" fill="#D6D6D6"></path>
            <path d="M354.861451,222.268113 L354.861451,169.918502 L384.438806,170.554447 C384.438806,170.554447 394.545757,175.685888 394.545757,196.093307 C394.545757,216.500727 384.438806,222.268113 384.438806,222.268113 L354.861451,222.268113 Z" id="Path-15" fill="#D6D6D6"></path>
            <path d="M308.970098,48.8839012 C308.970098,48.8839012 328.004921,48.6077407 338.639191,59.3055652 C349.273462,70.0033896 347.104211,86.9850413 347.104211,86.9850413 L325.214145,109.290621 C325.214145,109.290621 288.184613,73.7907849 286.942386,72.6322275" id="Path-18" fill="#D6D6D6"></path>
            <path d="M172.197925,46.5258347 L172.197925,10.4434983 C172.197925,10.4434983 178.400165,0.139138952 197.664879,0.139138952 C216.929593,0.139138952 223.131833,10.4434983 223.131833,10.4434983 L223.131833,44.882384 L172.197925,46.5258347 Z" id="Path-21" fill="#D6D6D6"></path>
            <path d="M45.5059051,86.0880678 C45.5059051,86.0880678 40.1542261,68.9719387 54.5067691,55.1511757 C68.8593121,41.3304126 87.0455687,44.1317567 87.0455687,44.1317567 L110.137038,70.1974586 L71.717106,110.024798 L45.5059051,86.0880678 Z" id="Path-24" fill="#D6D6D6"></path>
            <mask id="mask-2" fill="white">
                <use xlink:href="#path-1"></use>
            </mask>
            <g id="Oval-1"></g>
            <polygon id="Path-1" fill="#D6D6D6" mask="url(#mask-2)" points="105.454962 330.491107 152.26265 274.315552 174.157402 286.399073 170.874035 364.791756"></polygon>
            <polygon id="Path-2" fill="#999999" mask="url(#mask-2)" points="105.253188 331.655575 141.52026 287.675153 106.93872 253.214951 66.3739206 292.513505"></polygon>
            <polygon id="Path-3" fill="#D6D6D6" mask="url(#mask-2)" points="67.6849147 291.357692 111.665947 248.879425 98.8439658 222.257676 32.9091319 224.6326"></polygon>
            <polygon id="Path-4" fill="#999999" mask="url(#mask-2)" points="37.358694 223.968932 93.0802169 223.968932 93.0802169 173.613098 37.358694 173.613098"></polygon>
            <path d="M93.6606543,174.1223 L107.659034,138.709579 C107.659034,138.709579 79.0899522,111.847411 64.0142613,100.345519 L62.4319612,104.203903 L38.0794382,174.1223 L93.6606543,174.1223 Z" id="Path-5" fill="#D6D6D6" mask="url(#mask-2)"></path>
            <polygon id="Path-8" fill="#999999" mask="url(#mask-2)" points="171.082317 357.584954 225.499494 359.383402 223.780508 304.175088 172.672427 304.175088"></polygon>
            <polygon id="Path-10" fill="#D6D6D6" mask="url(#mask-2)" points="223.536912 304.157179 255.022298 289.098867 293.200568 332.587665 225.067843 361.227162"></polygon>
            <path d="M290.46789,330.083643 C290.46789,330.083643 319.763112,306.589118 330.177949,292.371607 L290.46789,257.027279 L254.90449,289.759658 L290.46789,330.083643 Z" id="Path-11" fill="#999999" mask="url(#mask-2)"></path>
            <path d="M289.991055,257.401829 L305.886167,220.626231 L356.923435,221.733634 C356.923435,221.733634 353.599772,241.638379 350.825298,250.482079 C346.060768,265.669128 331.656756,294.308699 331.656756,294.308699 L289.991055,257.401829 Z" id="Path-13" fill="#D6D6D6" mask="url(#mask-2)"></path>
            <polygon id="Path-14" fill="#999999" mask="url(#mask-2)" points="305.762631 221.145869 304.991984 169.385978 360.672527 170.087652 356.474975 222.425542"></polygon>
            <path d="M306.709345,169.674011 L292.12613,141.059475 L330.142202,104.217609 C330.142202,104.217609 343.134948,127.520358 347.744841,139.595291 C351.513547,149.466862 355.277999,170.057119 355.277999,170.057119 L306.709345,169.674011 Z" id="Path-16" fill="#D6D6D6" mask="url(#mask-2)"></path>
            <polyline id="Path-17" fill="#999999" mask="url(#mask-2)" points="291.116803 138.085772 255.738144 103.382797 291.116802 65.7137535 329.382729 105.340609 293.027711 141.633014"></polyline>
            <polygon id="Path-19" fill="#D6D6D6" mask="url(#mask-2)" points="256.198654 103.536379 293.555782 65.7986603 222.446026 35.2006814 222.446026 91.5705573"></polygon>
            <path d="M222.967289,91.0428059 L171.239629,91.7721046 L171.239629,39.5340481 C171.239629,39.5340481 194.117171,34.3189199 205.548003,34.741827 C210.851696,34.938048 222.967289,41.1521086 222.967289,41.1521086 L222.967289,91.0428059 Z" id="Path-20" fill="#999999" mask="url(#mask-2)"></path>
            <polygon id="Path-22" fill="#D6D6D6" mask="url(#mask-2)" points="141.581199 106.681984 171.531955 93.748487 171.531959 36.9048272 104.379171 66.141767"></polygon>
            <polygon id="Path-23" fill="#999999" mask="url(#mask-2)" points="106.866364 140.283322 144.403267 108.988242 104.19109 63.5159765 63.9789124 103.455517"></polygon>
            <ellipse id="Oval-2" fill="#FFFFFF" mask="url(#mask-2)" cx="196.255936" cy="196.607711" rx="114.378977" ry="114.382322"></ellipse>
        </g>
        <g id="Group-3" transform="translate(172.133301, 79.118037)">
            <path d="M25.021624,0.0773144086 C13.0294302,0.0773144083 0.0167811633,5.49489288 0.0167811633,5.49489288 C0.0167811633,5.49489288 10.1058793,34.4158459 25.021624,34.3410691 C39.9373687,34.2662924 51.3648212,6.05352588 51.3648212,6.05352588 C51.3648212,6.05352588 37.0138178,0.077314409 25.021624,0.0773144086 Z" id="Path-25" fill="#999999"></path>
            <ellipse id="Oval-6" fill="#FFFFFF" cx="25.0687332" cy="16.0562936" rx="7.62526516" ry="7.62548816"></ellipse>
        </g>
        <g id="Group-3" transform="translate(198.133301, 298.093707) scale(1, -1) translate(-198.133301, -298.093707) translate(172.133301, 280.593707)">
            <path d="M25.021624,0.0773144086 C13.0294302,0.0773144083 0.0167811633,5.49489288 0.0167811633,5.49489288 C0.0167811633,5.49489288 10.1058793,34.4158459 25.021624,34.3410691 C39.9373687,34.2662924 51.3648212,6.05352588 51.3648212,6.05352588 C51.3648212,6.05352588 37.0138178,0.077314409 25.021624,0.0773144086 Z" id="Path-25" fill="#999999"></path>
            <path d="M25.0687332,23.6817818 C29.2800508,23.6817818 32.6939983,20.2677345 32.6939983,16.0562936 C32.6939983,11.8448528 29.2800508,8.43080548 25.0687332,8.43080548 C20.8574155,8.43080548 17.443468,11.8448528 17.443468,16.0562936 C17.443468,20.2677345 20.8574155,23.6817818 25.0687332,23.6817818 Z" id="Oval-6" fill="#FFFFFF"></path>
        </g>
        <g id="Group-3" transform="translate(298.566112, 194.772964) scale(1, -1) rotate(-270.000000) translate(-298.566112, -194.772964) translate(272.566112, 177.272964)">
            <path d="M25.021624,0.0773144086 C13.0294302,0.0773144083 0.0167811633,5.49489288 0.0167811633,5.49489288 C0.0167811633,5.49489288 10.1058793,34.4158459 25.021624,34.3410691 C39.9373687,34.2662924 51.3648212,6.05352588 51.3648212,6.05352588 C51.3648212,6.05352588 37.0138178,0.077314409 25.021624,0.0773144086 Z" id="Path-25" fill="#999999"></path>
            <ellipse id="Oval-6" fill="#FFFFFF" cx="25.0687332" cy="16.0562936" rx="7.62526516" ry="7.62548816"></ellipse>
        </g>
        <g id="Group-3" transform="translate(97.239980, 199.172233) scale(-1, -1) rotate(-270.000000) translate(-97.239980, -199.172233) translate(71.739980, 181.672233)">
            <path d="M25.1798097,0.618671704 C13.1876159,0.618671704 0.412623815,4.97191944 0.412623815,4.97191944 C0.412623815,4.97191944 10.264065,34.9572032 25.1798097,34.8824264 C40.0955544,34.8076497 50.7003551,3.83080031 50.7003551,3.83080031 C50.7003551,3.83080031 37.1720035,0.618671705 25.1798097,0.618671704 Z" id="Path-25" fill="#999999"></path>
            <ellipse id="Oval-6" fill="#FFFFFF" cx="26.7237302" cy="15.8408725" rx="7.62526516" ry="7.62548816"></ellipse>
        </g>
    </g>
</svg>
